<?xml version="1.0" encoding="utf-8"?>
<!-- Generator: Adobe Illustrator 21.0.0, SVG Export Plug-In . SVG Version: 6.00 Build 0)  -->
<svg version="1.1" id="Layer_1" xmlns="http://www.w3.org/2000/svg" xmlns:xlink="http://www.w3.org/1999/xlink" x="0px" y="0px"
	 viewBox="0 0 160.7 46" style="enable-background:new 0 0 160.7 46;" xml:space="preserve">
<style type="text/css">
	.st0{enable-background:new    ;}
	.st1{fill:#FF7F7A;}
</style>
<g class="st0">
	<path class="st1" d="M22.9,33.2V14.7h-8c-1.1,3.2-4.2,5.8-13.1,11.2l-1.9-2.8c11.5-6.7,12-8.6,12-13.7V6.2H0.5V3.1h14.9v6.3
		c0,0.8,0,1.5-0.1,2.2h7.5V0h3.6v33.2H22.9z"/>
	<path class="st1" d="M32.9,24.8V12.1H42V5.7h-9.1V2.8h12.5v12.1h-9.1v7h1.8c3.1,0,6.2-0.1,9.2-0.6l0.4,2.9
		c-2.7,0.4-6.2,0.6-10.7,0.6C37,24.8,32.9,24.8,32.9,24.8z M60.5,33.2H57V15h-3.8v16.6h-3.5V0.7h3.5v11.2H57V0h3.5V33.2z"/>
	<path class="st1" d="M74.7,17.3c-0.3,0.8-1,1.6-2.1,2.8c-1.5,1.6-3.3,3.5-5.7,5.7l-2.3-2.4c2.2-1.9,3.9-3.7,5.5-5.5
		c2.4-2.6,2.8-4,2.8-6.7V7.9h-7.4V4.8h7.4V0.1h3.6v4.7h7.1v3.1h-7.1v3.3c0,2.8,0.4,3.9,3,6.7c1.5,1.7,3.1,3.1,5.2,5l-2.3,2.4
		c-2.4-2.2-4-3.7-5.3-5.2C75.9,19,75,18,74.7,17.3L74.7,17.3z M88.5,33.2V14.9h-6.4v-3.1h6.4V0h3.6v33.2H88.5z"/>
	<path class="st1" d="M107.5,12.3c-0.2,0.6-1.3,1.9-2.4,2.9c-1.5,1.4-3.7,3.2-5.6,4.7l-2.1-2.5c2.3-1.8,4.6-3.7,5.9-5
		c1.8-1.8,2.3-3.2,2.3-5.7V1.5h3.6v5c0,2.2,0.1,3.4,1.9,5c1.7,1.5,3.8,3.2,5.9,4.8l-2.1,2.5c-1.8-1.4-3.6-2.9-5.3-4.3
		C108.5,13.6,107.7,12.9,107.5,12.3L107.5,12.3z M107.3,29.7h18v3.1h-21.5V21.7h3.6L107.3,29.7L107.3,29.7z M121,23.6V0h3.5v23.6
		H121z"/>
	<path class="st1" d="M139.5,11.4c-0.2,0.6-1.3,1.9-2.4,2.9c-1.5,1.4-3.6,3.2-5.5,4.7l-2.1-2.5c2.3-1.8,4.5-3.7,5.8-4.9
		c1.8-1.8,2.3-3.2,2.3-5.7V1.5h3.6v4.2c0,2.2,0.1,3.4,1.9,5c1.7,1.5,3.7,3.2,5.9,4.8l-2.1,2.5c-1.9-1.4-3.5-2.8-5.3-4.2
		C140.5,12.8,139.8,12,139.5,11.4L139.5,11.4z M136.1,26.3c0-3.5,3.7-6.3,10-6.3s10,2.8,10,6.3v1.4c0,3.5-3.7,6.3-10,6.3
		s-10-2.8-10-6.3V26.3z M152.6,26.6c0-1.8-2.5-3.6-6.5-3.6s-6.5,1.9-6.5,3.6v1c0,1.8,2.5,3.6,6.5,3.6s6.5-1.9,6.5-3.6V26.6z
		 M160.7,11.1H156v8.5h-3.5V0h3.5v8h4.7V11.1z"/>
</g>
</svg>
