<?xml version="1.0" encoding="utf-8"?>
<!-- Generator: Adobe Illustrator 21.0.0, SVG Export Plug-In . SVG Version: 6.00 Build 0)  -->
<svg version="1.1" id="Layer_1" xmlns="http://www.w3.org/2000/svg" xmlns:xlink="http://www.w3.org/1999/xlink" x="0px" y="0px"
	 viewBox="0 0 160.7 46" style="enable-background:new 0 0 160.7 46;" xml:space="preserve">
<style type="text/css">
	.st0{fill:#FF7F7A;}
</style>
<rect id="Rectangle_682_copy" y="42" class="st0" width="160.7" height="4"/>
<g>
	<path class="st0" d="M23.1,23.7V11.8h-8.3c-1.4,3-5,5.1-13.4,8.7L0,17.7c10.3-4.5,12-6.3,12-9.9V5.1H1.4v-3h14.1V8
		c0,0.3,0,0.6,0,0.8h7.6V0h3.5v23.7H23.1z M9.4,29.7h17.9v3.1H5.9V21.9h3.6V29.7z"/>
	<path class="st0" d="M36,33.4v-8.2h18.2v-2.4H35.8v-2.9h9.3v-3.1H31.6v-3h30.5v3H48.7v3.1h9V28H39.5v2.5h19.2v2.9H36z M57.7,11.4
		H36.1V0.8h21.6V11.4z M54.2,3.7H39.6v4.8h14.6V3.7z"/>
	<path class="st0" d="M66.4,15.7V1h3.5v4.8h8.5V1h3.5v14.7H66.4z M69.9,12.7h8.5v-4h-8.5V12.7z M71.6,33.4v-8.9h17.1v-3H71.4v-3
		h20.7v8.9H75.1v3.1h18v3H71.6z M88.6,16.8v-3.4h-5.2v-3.1h5.2V7.2h-5.2V4.1h5.2V0h3.5v16.8H88.6z"/>
	<path class="st0" d="M107.5,12.3c-0.2,0.6-1.3,1.9-2.4,2.9c-1.5,1.4-3.7,3.2-5.6,4.7l-2.1-2.5c2.3-1.8,4.6-3.7,5.9-5
		c1.8-1.8,2.3-3.2,2.3-5.7V1.5h3.6v5c0,2.2,0.1,3.4,1.9,5c1.7,1.5,3.8,3.2,5.9,4.8l-2.1,2.5c-1.8-1.4-3.6-2.9-5.3-4.3
		C108.5,13.6,107.8,12.9,107.5,12.3L107.5,12.3z M107.4,29.7h18v3.1h-21.5V21.7h3.6V29.7z M121,23.6V0h3.5v23.6H121z"/>
	<path class="st0" d="M139.6,11.4c-0.2,0.6-1.3,1.9-2.4,2.9c-1.5,1.4-3.6,3.2-5.5,4.7l-2.1-2.5c2.3-1.8,4.5-3.7,5.8-4.9
		c1.8-1.8,2.3-3.2,2.3-5.7V1.5h3.6v4.2c0,2.2,0.1,3.4,1.9,5c1.7,1.5,3.7,3.2,5.9,4.8l-2.1,2.5c-1.9-1.4-3.5-2.8-5.3-4.2
		C140.6,12.8,139.8,12,139.6,11.4L139.6,11.4z M136.1,26.3c0-3.5,3.7-6.3,10-6.3c6.3,0,10,2.8,10,6.3v1.4c0,3.5-3.7,6.3-10,6.3
		c-6.3,0-10-2.8-10-6.3V26.3z M152.7,26.6c0-1.8-2.5-3.6-6.5-3.6c-4,0-6.5,1.9-6.5,3.6v1c0,1.8,2.5,3.6,6.5,3.6c4,0,6.5-1.9,6.5-3.6
		V26.6z M160.7,11.1H156v8.5h-3.5V0h3.5v8h4.7V11.1z"/>
</g>
</svg>
