<?xml version="1.0" encoding="utf-8"?>
<!-- Generator: Adobe Illustrator 21.0.0, SVG Export Plug-In . SVG Version: 6.00 Build 0)  -->
<svg version="1.1" id="Layer_1" xmlns="http://www.w3.org/2000/svg" xmlns:xlink="http://www.w3.org/1999/xlink" x="0px" y="0px"
	 viewBox="0 0 66 41" style="enable-background:new 0 0 66 41;" xml:space="preserve">
<style type="text/css">
	.st0{fill:#D7D7D7;}
</style>
<path class="st0" d="M65,0H28c-0.6,0-1,0.4-1,1v5H14c-4.4,0-8,3.6-8,8v6.5V21v0.3c-3.5,0.9-6,4-6,7.7v4v3h6.3c0.7,2.3,2.4,4,4.7,4.7
	c3.7,1.1,7.6-1,8.7-4.7h26.6c0.7,2.3,2.4,4,4.7,4.7c3.7,1.1,7.6-1,8.7-4.7H65c0.6,0,1-0.4,1-1V1C66,0.4,65.6,0,65,0z M9,15h7v4H9V15
	z M13,38c-2.2,0-4-1.8-4-4s1.8-4,4-4s4,1.8,4,4S15.2,38,13,38z M27,33h-7.1c-0.4-3.1-2.9-5.5-5.9-5.9c-3.8-0.5-7.4,2.1-7.9,5.9H3v-3
	c0-3.3,2.7-6,6-6v-2h10V12H9.8c1.1-1.9,3-3,5.2-3h12V33z M53,38c-2.2,0-4-1.8-4-4s1.8-4,4-4s4,1.8,4,4S55.2,38,53,38z M63,33h-3.1
	c-0.4-3.1-2.9-5.5-5.9-5.9c-3.8-0.5-7.4,2.1-7.9,5.9H30V9V6V3h33V33z"/>
<g>
	<path class="st0" d="M43.3,19.7c0.2,1.4,1.5,2.3,3.4,2.3c1.8,0,3.1-0.9,3.1-2.2c0-1.1-0.8-1.7-2.6-2.2l-1.8-0.4
		c-2.6-0.6-3.8-1.8-3.8-3.8c0-2.4,2.1-4.1,5.1-4.1c3,0,5,1.7,5.1,4.1h-2.1c-0.1-1.4-1.3-2.3-3-2.3s-2.9,0.9-2.9,2.1
		c0,1,0.7,1.6,2.6,2l1.6,0.4c2.9,0.7,4.1,1.8,4.1,3.9c0,2.6-2.1,4.3-5.4,4.3c-3.1,0-5.2-1.6-5.4-4.2H43.3z"/>
</g>
</svg>
