<?xml version="1.0" encoding="utf-8"?>
<!-- Generator: Adobe Illustrator 21.0.0, SVG Export Plug-In . SVG Version: 6.00 Build 0)  -->
<svg version="1.1" id="Layer_1" xmlns="http://www.w3.org/2000/svg" xmlns:xlink="http://www.w3.org/1999/xlink" x="0px" y="0px"
	 viewBox="0 0 52 50" style="enable-background:new 0 0 52 50;" xml:space="preserve">
<style type="text/css">
	.st0{fill:#202225;}
</style>
<path class="st0" d="M51.8,18.7c-0.6-1.8-2.2-3.1-4.1-3.2l-12.6-0.9L30.3,2.9C29.6,1.1,28,0,26.1,0l0,0c-1.9,0-3.7,1.1-4.4,2.9
	L17,14.6L4.3,15.5c-1.9,0.2-3.5,1.5-4.1,3.3s0,3.7,1.4,4.9l9.6,8.2l-3,12.3c-0.1,0.4-0.1,0.7-0.1,1.1c0,1.2,0.5,2.4,1.3,3.3
	c0.9,0.9,2,1.4,3.3,1.4c0.9,0,1.7-0.3,2.5-0.7L26,42.6l10.7,6.6c1.6,1,3.7,0.9,5.1-0.2c1.6-1.1,2.3-3,1.8-4.9l-3-12.3l9.6-8.2
	C51.8,22.5,52.4,20.6,51.8,18.7z M48.1,21L48.1,21L37,30.4c-0.1,0.1-0.2,0.3-0.2,0.5L40.3,45c0.1,0.4-0.1,0.9-0.5,1.2
	s-0.8,0.3-1.2,0l-12.3-7.6c-0.2-0.1-0.4-0.1-0.5,0l-12.3,7.7c-0.3,0.2-0.6,0.2-0.9,0.1c-0.6-0.2-0.9-0.8-0.8-1.4l3.4-14.1
	c0-0.2,0-0.4-0.2-0.5L3.9,21l0,0c-0.3-0.3-0.4-0.7-0.3-1.1c0.1-0.5,0.5-0.8,1-0.8L19.1,18c0.2,0,0.3-0.1,0.4-0.3l5.4-13.4
	c0.2-0.4,0.6-0.7,1.1-0.7l0,0c0.4,0,0.8,0.3,1,0.7l5.5,13.5c0.1,0.2,0.2,0.3,0.4,0.3L47.4,19c0.3,0,0.6,0.2,0.8,0.4
	c0.2,0.2,0.3,0.5,0.3,0.8C48.4,20.6,48.3,20.8,48.1,21z"/>
</svg>
