<?xml version="1.0" encoding="utf-8"?>
<!-- Generator: Adobe Illustrator 21.0.0, SVG Export Plug-In . SVG Version: 6.00 Build 0)  -->
<svg version="1.1" id="Layer_1" xmlns="http://www.w3.org/2000/svg" xmlns:xlink="http://www.w3.org/1999/xlink" x="0px" y="0px"
	 viewBox="0 0 60 48" style="enable-background:new 0 0 60 48;" xml:space="preserve">
<style type="text/css">
	.st0{fill:#FF7F7A;}
</style>
<g>
	<ellipse class="st0" cx="21.9" cy="44.1" rx="4" ry="3.9"/>
	<ellipse class="st0" cx="48.8" cy="44.1" rx="4" ry="3.9"/>
	<path class="st0" d="M58.7,5.4c-0.3-0.1-0.5-0.1-0.8-0.1c0,0-0.1,0-0.1,0H24.9c-1.1,0-2,0.9-2,2s0.9,2,2,2h30.5l-6.2,22.5H20.2
		L12.5,1.4c-0.2-0.6-0.6-1.1-1.1-1.3c0,0,0,0,0,0c-0.1,0-0.2-0.1-0.3-0.1c0,0-0.1,0-0.1,0c-0.1,0-0.2,0-0.2,0c0,0-0.1,0-0.1,0H2
		C0.9,0,0,0.9,0,2s0.9,2,2,2h7.1l7.6,30.3c0.2,0.9,1.1,1.5,2,1.4c0,0,0,0,0,0h32c0,0,0,0,0.1,0c0,0,0.1,0,0.1,0
		c0.9-0.1,1.7-0.8,1.8-1.7l7.1-26C60.2,6.9,59.7,5.8,58.7,5.4z"/>
</g>
</svg>
