<?xml version="1.0" encoding="utf-8"?>
<!-- Generator: Adobe Illustrator 21.0.0, SVG Export Plug-In . SVG Version: 6.00 Build 0)  -->
<svg version="1.1" id="Layer_1" xmlns="http://www.w3.org/2000/svg" xmlns:xlink="http://www.w3.org/1999/xlink" x="0px" y="0px"
	 viewBox="0 0 161.2 46" style="enable-background:new 0 0 161.2 46;" xml:space="preserve">
<style type="text/css">
	.st0{fill:#FF7F7A;}
</style>
<rect id="Rectangle_682_copy" y="42" class="st0" width="161.2" height="4"/>
<g>
	<path class="st0" d="M10.1,12.3c-0.2,0.6-1.3,1.9-2.4,2.9c-1.5,1.4-3.7,3.2-5.6,4.7L0,17.4c2.3-1.8,4.6-3.7,5.9-5
		c1.8-1.8,2.3-3.2,2.3-5.7V1.5h3.6v5c0,2.2,0.1,3.4,1.9,5c1.7,1.5,3.8,3.2,5.9,4.8l-2.1,2.5c-1.8-1.4-3.6-2.9-5.3-4.3
		C11.1,13.6,10.4,12.9,10.1,12.3L10.1,12.3z M10,29.7h18v3.1H6.4V21.7H10V29.7z M23.6,23.6V0h3.5v23.6H23.6z"/>
	<path class="st0" d="M42.2,11.4c-0.2,0.6-1.3,1.9-2.4,2.9c-1.5,1.4-3.6,3.2-5.5,4.7l-2.1-2.5c2.3-1.8,4.5-3.7,5.8-4.9
		c1.8-1.8,2.3-3.2,2.3-5.7V1.5h3.6v4.2c0,2.2,0.1,3.4,1.9,5c1.7,1.5,3.7,3.2,5.9,4.8l-2.1,2.5c-1.9-1.4-3.5-2.8-5.3-4.2
		C43.2,12.8,42.4,12,42.2,11.4L42.2,11.4z M38.7,26.3c0-3.5,3.7-6.3,10-6.3s10,2.8,10,6.3v1.4c0,3.5-3.7,6.3-10,6.3s-10-2.8-10-6.3
		V26.3z M55.3,26.6c0-1.8-2.5-3.6-6.5-3.6s-6.5,1.9-6.5,3.6v1c0,1.8,2.5,3.6,6.5,3.6s6.5-1.9,6.5-3.6V26.6z M63.3,11.1h-4.7v8.5
		h-3.5V0h3.5v8h4.7V11.1z"/>
	<path class="st0" d="M95.7,25.7v3H65.3v-3h13.4v-6.2h3.6v6.2H95.7z M68.9,7.9V4.8h9.8V0.4h3.6v4.4h9.9v3.1h-9.9V8
		c0,2.3,0.9,4,3.8,5.8c2.8,1.8,4.5,2.7,7.6,4.1l-1.7,2.8c-3.1-1.5-5-2.6-7.5-4.1c-2.4-1.5-3.6-2.6-3.9-3.2h0c-0.4,0.6-1.6,1.8-4,3.3
		c-2.4,1.5-4.7,2.7-7.4,4.1L67.4,18c3.1-1.5,5.3-2.6,7.6-4.1c2.8-1.8,3.8-3.5,3.8-5.9V7.9H68.9z"/>
	<path class="st0" d="M116.5,11.9v3.7c0,6.3-3.5,9.6-8.4,9.6s-8.4-3.3-8.4-9.6v-3.7c0-6.4,3.5-9.6,8.4-9.6S116.5,5.5,116.5,11.9z
		 M113,15.1v-2.7c0-5.1-2.4-6.9-5-6.9c-2.6,0-5,1.8-5,6.9v2.7c0,5.1,2.4,6.9,5,6.9C110.7,22,113,20.2,113,15.1z M122,33.2V0h3.6
		v33.2H122z"/>
	<path class="st0" d="M161.2,25.7v3h-30.5v-3H161.2z M146,12.6c-0.4,0.8-1.8,2.1-4.2,3.6c-2.1,1.3-4.4,2.7-7.4,4.4l-1.8-2.8
		c2.9-1.6,5.1-2.9,7.6-4.5c3.3-2.2,4-3.8,4-7.3V2.3h3.6V6c0,3.5,0.5,5,4.4,7.6c2.3,1.5,4.4,2.7,7.2,4.2l-1.7,2.8
		c-2.7-1.5-5.3-3-7.5-4.4C147.9,14.7,146.4,13.4,146,12.6L146,12.6z"/>
</g>
</svg>
