<?xml version="1.0" encoding="utf-8"?>
<!-- Generator: Adobe Illustrator 21.0.0, SVG Export Plug-In . SVG Version: 6.00 Build 0)  -->
<svg version="1.1" id="Layer_1" xmlns="http://www.w3.org/2000/svg" xmlns:xlink="http://www.w3.org/1999/xlink" x="0px" y="0px"
	 viewBox="0 0 128.4 46" style="enable-background:new 0 0 128.4 46;" xml:space="preserve">
<style type="text/css">
	.st0{fill:#FF7F7A;}
</style>
<g>
	<path class="st0" d="M10,13.1c-0.2,0.6-1.3,1.8-2.4,2.8c-1.5,1.4-3.5,2.9-5.5,4.3L0,17.6c2.3-1.6,4.5-3.3,5.8-4.5
		c1.8-1.7,2.3-3.1,2.3-5.7V5.2h-7V2.1h17.1v3.1h-6.6v2.1c0,2.3,0.3,3.7,1.9,5c1.7,1.5,3.6,2.9,5.7,4.3l-2,2.6
		c-1.9-1.3-3.4-2.5-5.1-3.9C11,14.3,10.3,13.6,10,13.1L10,13.1z M9.8,29.7h17.9v3.1H6.3V21.7h3.6V29.7z M23.5,23.6V11.5h-6.1V8.5
		h6.1V0H27v23.6H23.5z"/>
	<path class="st0" d="M40.5,17.3c-0.3,0.7-0.8,1.5-1.5,2.4c-1.4,1.7-3.3,3.7-5.2,5.7l-2.4-2.4c2.2-2.1,4-4,5.6-6
		c1.4-1.9,1.8-3.6,1.8-5.7V8h-6V5h6V0.7h3.5V5h5.7v3h-5.7v3.2c0,2.1,0.5,3.7,1.9,5.6c1.5,1.9,3.1,3.6,5.2,5.7l-2.4,2.4
		C45,23,43.5,21.4,42,19.7C41.3,18.8,40.8,18,40.5,17.3L40.5,17.3z M50.9,0.7h3.5v30.9h-3.5V15H46v-3.1h4.9V0.7z M61,33.2h-3.5V0H61
		V33.2z"/>
	<path class="st0" d="M75.2,12.3c-0.2,0.6-1.3,1.9-2.4,2.9c-1.5,1.4-3.7,3.2-5.6,4.7l-2.1-2.5c2.3-1.8,4.6-3.7,5.9-5
		c1.8-1.8,2.3-3.2,2.3-5.7V1.5h3.6v5c0,2.2,0.1,3.4,1.9,5c1.7,1.5,3.8,3.2,5.9,4.8l-2.1,2.5c-1.8-1.4-3.6-2.9-5.3-4.3
		C76.2,13.6,75.4,12.9,75.2,12.3L75.2,12.3z M75,29.7h18v3.1H71.5V21.7H75V29.7z M88.7,23.6V0h3.5v23.6H88.7z"/>
	<path class="st0" d="M107.2,11.4c-0.2,0.6-1.3,1.9-2.4,2.9c-1.5,1.4-3.6,3.2-5.5,4.7l-2.1-2.5c2.3-1.8,4.5-3.7,5.8-4.9
		c1.8-1.8,2.3-3.2,2.3-5.7V1.5h3.6v4.2c0,2.2,0.1,3.4,1.9,5c1.7,1.5,3.7,3.2,5.9,4.8l-2.1,2.5c-1.9-1.4-3.5-2.8-5.3-4.2
		C108.2,12.8,107.5,12,107.2,11.4L107.2,11.4z M103.8,26.3c0-3.5,3.7-6.3,10-6.3c6.3,0,10,2.8,10,6.3v1.4c0,3.5-3.7,6.3-10,6.3
		c-6.3,0-10-2.8-10-6.3V26.3z M120.3,26.6c0-1.8-2.5-3.6-6.5-3.6c-4,0-6.5,1.9-6.5,3.6v1c0,1.8,2.5,3.6,6.5,3.6c4,0,6.5-1.9,6.5-3.6
		V26.6z M128.4,11.1h-4.7v8.5h-3.5V0h3.5v8h4.7V11.1z"/>
</g>
<rect x="0" y="42" class="st0" width="128.4" height="4"/>
</svg>
