<?xml version="1.0" encoding="utf-8"?>
<!-- Generator: Adobe Illustrator 21.0.0, SVG Export Plug-In . SVG Version: 6.00 Build 0)  -->
<svg version="1.1" id="Layer_1" xmlns="http://www.w3.org/2000/svg" xmlns:xlink="http://www.w3.org/1999/xlink" x="0px" y="0px"
	 viewBox="0 0 46 52" style="enable-background:new 0 0 46 52;" xml:space="preserve">
<style type="text/css">
	.st0{enable-background:new    ;}
	.st1{fill:#FF7F7A;}
</style>
<g class="st0">
	<path class="st1" d="M10.5,51V38.9h3l3.4,8.2H17l3.4-8.2h3V51H21v-8.1h-0.1l-3.1,7.4H16l-3.1-7.4h-0.1V51H10.5z"/>
	<path class="st1" d="M29.6,51v-4.5l-4.2-7.7h2.8l2.7,5.1H31l2.7-5.1h2.8l-4.2,7.7V51H29.6z"/>
</g>
<path class="st1" d="M23,0c-6.2,0-11.2,5-11.2,11.2s5,11.2,11.2,11.2s11.2-5,11.2-11.2S29.2,0,23,0z M23,18.7
	c-4.1,0-7.5-3.3-7.5-7.5c0-4.1,3.3-7.5,7.5-7.5c4.1,0,7.5,3.3,7.5,7.5S27.1,18.7,23,18.7z"/>
<path class="st1" d="M46,47.9c0-11.3-9.2-20.5-20.5-20.5h-5C9.2,27.4,0,36.6,0,47.9c0,0.7,0.1,1.4,0.1,2l0,0c0.1,1.1,1,2,2.2,2
	s2.1-0.9,2.2-2l0,0v-0.1c0,0,0,0,0-0.1s0-0.1,0-0.2c0-0.6-0.1-1.1-0.1-1.7c0-9.1,7.4-16.5,16.5-16.5h4c9.1,0,16.5,7.4,16.5,16.5
	c0,0.6-0.1,1.1-0.1,1.7c0,0.1,0,0.1,0,0.2c0,0,0,0,0,0.1v0.1l0,0c0.1,1.1,1,2,2.2,2s2.1-0.9,2.2-2l0,0C45.9,49.3,46,48.6,46,47.9z"
	/>
</svg>
